<?xml version="1.0" encoding="utf-8"?>
<!-- Generator: Adobe Illustrator 26.0.1, SVG Export Plug-In . SVG Version: 6.00 Build 0)  -->
<svg version="1.1" id="Layer_1" xmlns="http://www.w3.org/2000/svg" xmlns:xlink="http://www.w3.org/1999/xlink" x="0px" y="0px"
	 viewBox="0 0 414.4 61.5" style="enable-background:new 0 0 414.4 61.5;" xml:space="preserve">
<style type="text/css">
	.st0{display:none;fill:#231F20;}
	.st1{fill:#FFCC33;}
</style>
<path class="st0" d="M40,73.8H8.9v-206.4h44.6l29,148.3l27.8-148.3h42.9V73.8h-31.1V-55.9l-27,129.7h-25L40-55.5V73.8z"/>
<rect x="186.9" y="-143.1" class="st0" width="105" height="217.2"/>
<circle class="st0" cx="24.7" cy="31.6" r="41.9"/>
<path class="st1" d="M30.7,0C13.8,0,0,13.8,0,30.7s13.8,30.7,30.7,30.7s30.7-13.8,30.7-30.7S47.7,0,30.7,0z M41.1,6.5L30.7,23.1
	L20.4,6.5c3.3-1.4,6.8-2.1,10.4-2.1S37.8,5,41.1,6.5z M28.3,57c-13.5-1.2-24-12.6-24-26.3c0-9.6,5.1-18.3,13.5-23L19,24.6L6.2,22.3
	L28.3,57z M15.2,28.3l8.5,1.6l-0.8-11.2l5.7,9.1v21.6L15.2,28.3z M55.2,22.3l-12.8,2.3l1.2-16.9c8.3,4.7,13.5,13.5,13.5,23
	c0,13.7-10.4,25-23.9,26.3L55.2,22.3z M32.9,49.5V27.8l5.7-9.1l-0.8,11.2l8.5-1.6L32.9,49.5z"/>
<g>
	<g>
		<g>
			<path class="st1" d="M98.5,41.4V29.1c0-0.4,0-0.9,0.1-1.5c-0.2,0.4-0.3,0.7-0.4,0.8l-4.8,8.7h-1.8l-4.8-8.7
				c-0.1-0.2-0.2-0.5-0.4-0.8c0.1,0.6,0.1,1.1,0.1,1.5v12.3h-4.7V20.1h4.6l5.7,10.4c0.1,0.2,0.2,0.5,0.4,1c0.2-0.4,0.3-0.8,0.4-1
				l5.4-10.4h4.8v21.3H98.5z"/>
			<path class="st1" d="M120.4,41.4l-1.6-5.4h-6.5l-1.7,5.4h-4.9l7.6-21.3h4.5l7.7,21.3H120.4z M116.1,26.9c-0.1-0.4-0.3-1-0.5-1.7
				c-0.2,0.8-0.3,1.3-0.4,1.7l-1.6,5.2h4.1L116.1,26.9z"/>
			<path class="st1" d="M133.9,24v17.3h-4.7V24H125v-3.9h13V24H133.9z"/>
			<path class="st1" d="M148.9,24v17.3h-4.7V24H140v-3.9h13V24H148.9z"/>
			<path class="st1" d="M168.3,41.4v-8.5h-7.4v8.5h-4.7V20.1h4.7v8.8h7.4v-8.8h4.7v21.3H168.3z"/>
			<path class="st1" d="M176.3,41.4V20.1h12.4V24H181v5h7.2V33H181v4.5h8.2v3.9L176.3,41.4L176.3,41.4z"/>
			<path class="st1" d="M211,41.4h-4.5l-2.3-11.2c0-0.2-0.1-0.5-0.1-0.9s-0.1-0.8-0.1-1.1s-0.1-0.8-0.1-1.3c-0.1,0.5-0.1,1-0.2,1.3
				c-0.1,0.4-0.1,0.7-0.1,1.1c-0.1,0.4-0.1,0.7-0.1,0.9L201,41.4h-4.7l-5.5-21.3h4.8l2.7,11.4c0.1,0.2,0.1,0.6,0.2,0.9
				c0.1,0.4,0.1,0.7,0.1,0.9s0,0.4,0,0.4c0,0,0-0.2,0-0.4s0.1-0.5,0.1-0.9s0.1-0.7,0.2-1l2.3-11.4h4.6l2.5,11.4
				c0,0.2,0.1,0.5,0.1,0.9c0.1,0.4,0.1,0.7,0.1,0.9s0,0.4,0,0.4c0,0,0-0.2,0-0.4c0-0.2,0.1-0.5,0.1-0.9s0.1-0.7,0.2-0.9l2.6-11.4
				h4.7L211,41.4z"/>
		</g>
	</g>
	<g>
		<path class="st1" d="M245.8,37.9c-0.4,0.8-0.9,1.4-1.6,1.9c-0.7,0.5-1.5,0.9-2.5,1.2s-2,0.4-3.2,0.4h-10V20.1h9.3
			c1.1,0,2.1,0.1,3,0.4s1.7,0.6,2.3,1.1c0.6,0.5,1.1,1.1,1.5,1.8s0.5,1.5,0.5,2.4c0,1.1-0.3,2-0.9,2.8c-0.6,0.8-1.4,1.4-2.3,1.7
			c0.6,0.1,1.2,0.3,1.7,0.6s1,0.7,1.4,1.1c0.4,0.5,0.7,1,0.9,1.5s0.3,1.2,0.3,1.8C246.3,36.3,246.2,37.1,245.8,37.9z M238.4,25.3
			c-0.5-0.3-1.2-0.4-2.2-0.4h-1.1v4h1.1c1.9,0,2.9-0.7,2.9-2.1C239.2,26,238.9,25.5,238.4,25.3z M239.3,33.1c-0.5-0.3-1.1-0.5-2-0.5
			h-2.2v4h2.2c1,0,1.7-0.2,2.1-0.5s0.6-0.9,0.6-1.5C240.1,33.9,239.8,33.4,239.3,33.1z"/>
		<path class="st1" d="M259.4,41.4l-3.9-7.5v7.5h-6.9V20.1h8.9c2.5,0,4.5,0.6,5.9,1.7s2.1,2.7,2.1,4.9c0,1.4-0.3,2.6-1,3.7
			s-1.5,1.8-2.6,2.2l5.1,8.8H259.4z M258.4,25.6c-0.4-0.3-1-0.5-1.9-0.5h-1.1v4.1h1.1c1.6,0,2.5-0.7,2.5-2.1
			C259.1,26.5,258.9,25.9,258.4,25.6z"/>
		<path class="st1" d="M289.2,35.1c-0.6,1.3-1.4,2.5-2.4,3.5c-1,1-2.2,1.8-3.6,2.3s-2.9,0.8-4.6,0.8s-3.2-0.3-4.6-0.8
			c-1.4-0.5-2.6-1.3-3.6-2.3c-1-1-1.8-2.1-2.4-3.5s-0.8-2.8-0.8-4.4c0-1.6,0.3-3.1,0.9-4.4c0.6-1.3,1.4-2.5,2.4-3.5
			c1-1,2.2-1.8,3.6-2.3s2.9-0.8,4.6-0.8s3.2,0.3,4.6,0.8s2.6,1.3,3.6,2.3c1,1,1.8,2.1,2.4,3.5s0.8,2.8,0.8,4.4
			S289.8,33.8,289.2,35.1z M282.8,28.7c-0.2-0.7-0.5-1.2-1-1.7s-0.9-0.8-1.4-1.1s-1.1-0.4-1.8-0.4s-1.2,0.1-1.8,0.4
			c-0.5,0.3-1,0.6-1.4,1.1s-0.7,1-0.9,1.7c-0.2,0.7-0.3,1.3-0.3,2.1c0,0.8,0.1,1.5,0.3,2.1c0.2,0.7,0.5,1.2,1,1.7
			c0.4,0.5,0.9,0.8,1.4,1.1c0.5,0.3,1.1,0.4,1.8,0.4s1.2-0.1,1.8-0.4c0.5-0.3,1-0.6,1.4-1.1s0.7-1,0.9-1.7c0.2-0.7,0.3-1.3,0.3-2.1
			C283.1,30,283,29.3,282.8,28.7z"/>
		<path class="st1" d="M312.3,36.2c-0.5,1.3-1.2,2.3-2.2,3.2s-2,1.4-3.3,1.8s-2.6,0.6-4.1,0.6c-1.5,0-2.8-0.2-4.1-0.6
			s-2.3-1-3.3-1.8c-0.9-0.8-1.6-1.9-2.2-3.2c-0.5-1.3-0.8-2.8-0.8-4.6V20.1h7.1v12.2c0,1.2,0.3,2.1,0.9,2.8c0.6,0.7,1.4,1,2.3,1
			s1.8-0.3,2.4-1c0.6-0.7,0.9-1.6,0.9-2.8V20.1h7.1v11.5C313.1,33.4,312.8,34.9,312.3,36.2z"/>
		<path class="st1" d="M331.2,37.5c-0.4,0.9-0.9,1.6-1.7,2.2c-0.7,0.6-1.6,1.1-2.6,1.4s-2.2,0.5-3.5,0.5c-1.8,0-3.3-0.3-4.8-0.8
			s-2.7-1.3-3.7-2.1l2.8-4.5c1,0.8,1.9,1.4,2.8,1.8s1.8,0.6,2.7,0.6c0.5,0,0.9-0.1,1.2-0.3c0.3-0.2,0.5-0.5,0.5-0.9
			c0-0.2-0.1-0.5-0.2-0.7s-0.3-0.4-0.6-0.5c-0.3-0.2-0.6-0.3-1-0.5s-1-0.3-1.6-0.5c-1-0.3-1.8-0.6-2.5-1c-0.7-0.4-1.3-0.8-1.8-1.3
			s-0.9-1.1-1.1-1.7s-0.4-1.4-0.4-2.3c0-1.2,0.2-2.2,0.6-3c0.4-0.9,1-1.6,1.8-2.2s1.7-1,2.8-1.3s2.3-0.5,3.5-0.5
			c0.7,0,1.4,0.1,2,0.2c0.7,0.1,1.3,0.3,1.9,0.5s1.2,0.4,1.7,0.7s0.9,0.5,1.3,0.8l-2.8,4.6c-0.7-0.5-1.5-0.9-2.1-1.2
			s-1.4-0.4-2.2-0.4c-0.7,0-1.2,0.1-1.4,0.4s-0.4,0.5-0.4,0.8c0,0.2,0,0.3,0.1,0.5s0.2,0.3,0.5,0.4s0.6,0.3,1,0.5
			c0.4,0.2,1,0.3,1.7,0.5c1,0.3,1.8,0.6,2.5,0.9s1.4,0.8,1.9,1.3s0.9,1.1,1.1,1.8c0.3,0.7,0.4,1.6,0.4,2.6
			C331.8,35.7,331.6,36.7,331.2,37.5z"/>
		<path class="st1" d="M349,37.5c-0.4,0.9-0.9,1.6-1.7,2.2c-0.7,0.6-1.6,1.1-2.6,1.4s-2.2,0.5-3.5,0.5c-1.8,0-3.3-0.3-4.8-0.8
			s-2.7-1.3-3.7-2.1l2.8-4.5c1,0.8,1.9,1.4,2.8,1.8s1.8,0.6,2.7,0.6c0.5,0,0.9-0.1,1.2-0.3c0.3-0.2,0.5-0.5,0.5-0.9
			c0-0.2-0.1-0.5-0.2-0.7s-0.3-0.4-0.6-0.5c-0.3-0.2-0.6-0.3-1-0.5s-1-0.3-1.6-0.5c-1-0.3-1.8-0.6-2.5-1c-0.7-0.4-1.3-0.8-1.8-1.3
			s-0.9-1.1-1.1-1.7s-0.4-1.4-0.4-2.3c0-1.2,0.2-2.2,0.6-3c0.4-0.9,1-1.6,1.8-2.2s1.7-1,2.8-1.3s2.3-0.5,3.5-0.5
			c0.7,0,1.4,0.1,2,0.2c0.7,0.1,1.3,0.3,1.9,0.5s1.2,0.4,1.7,0.7s0.9,0.5,1.3,0.8l-2.8,4.6c-0.7-0.5-1.5-0.9-2.1-1.2
			S343,25,342.1,25c-0.7,0-1.2,0.1-1.4,0.4s-0.4,0.5-0.4,0.8c0,0.2,0,0.3,0.1,0.5s0.2,0.3,0.5,0.4s0.6,0.3,1,0.5
			c0.4,0.2,1,0.3,1.7,0.5c1,0.3,1.8,0.6,2.5,0.9s1.4,0.8,1.9,1.3s0.9,1.1,1.1,1.8c0.3,0.7,0.4,1.6,0.4,2.6
			C349.6,35.7,349.4,36.7,349,37.5z"/>
		<path class="st1" d="M365.6,41.4l-1.1-3.9h-6.2l-1.1,3.9h-6.8l7.4-21.3h7.7l7.4,21.3H365.6z M361.3,27l-1.6,5.4h3.2L361.3,27z"/>
		<path class="st1" d="M385.4,41.4l-3.9-7.5v7.5h-6.9V20.1h8.9c2.5,0,4.5,0.6,5.9,1.7s2.1,2.7,2.1,4.9c0,1.4-0.3,2.6-1,3.7
			s-1.5,1.8-2.6,2.2l5.1,8.8H385.4z M384.4,25.6c-0.4-0.3-1-0.5-1.9-0.5h-1.1v4.1h1.1c1.6,0,2.5-0.7,2.5-2.1
			C385,26.5,384.8,25.9,384.4,25.6z"/>
		<path class="st1" d="M413.5,35.3c-0.6,1.3-1.5,2.4-2.6,3.3c-1.1,0.9-2.4,1.6-3.9,2c-1.5,0.5-3,0.7-4.6,0.7h-7.9V20.1h7.9
			c1.8,0,3.4,0.2,4.8,0.7c1.5,0.5,2.8,1.1,3.8,2s1.9,2,2.5,3.3s0.9,2.8,0.9,4.5C414.4,32.5,414.1,34,413.5,35.3z M406,27
			c-0.9-0.9-2.2-1.3-3.7-1.3h-1.1v10.1h1.1c1.6,0,2.9-0.5,3.7-1.4s1.3-2.2,1.3-3.7C407.4,29.1,407,27.9,406,27z"/>
	</g>
</g>
</svg>
